<?xml version="1.0" encoding="UTF-8"?>
<svg xmlns="http://www.w3.org/2000/svg" viewBox="0 0 900 408" width="900" height="408">
<g fill="#000000" stroke="none">
<rect x="177" y="63" width="572" height="5"/>
<rect x="177" y="177" width="572" height="5"/>
<rect x="177" y="288" width="572" height="5"/>
<rect x="177" y="399" width="572" height="5"/>
<path d="M126 700H275L389 0H279L259 139V137H134L114 0H12ZM246 232 197 578H195L147 232Z" transform="translate(195.0,152.0) scale(0.105400,-0.068000)"/>
<path d="M41 700H151V415H269V700H379V0H269V315H151V0H41Z" transform="translate(247.3,152.0) scale(0.105400,-0.068000)"/>
<path d="M41 700H198L268 199H270L340 700H497V0H393V530H391L311 0H219L139 530H137V0H41Z" transform="translate(301.5,152.0) scale(0.105400,-0.068000)"/>
<path d="M41 700H341V600H151V415H302V315H151V100H341V0H41Z" transform="translate(368.2,152.0) scale(0.105400,-0.068000)"/>
<path d="M41 700H209Q291 700 332.0 656.0Q373 612 373 527V173Q373 88 332.0 44.0Q291 0 209 0H41ZM207 100Q234 100 248.5 116.0Q263 132 263 168V532Q263 568 248.5 584.0Q234 600 207 600H151V100Z" transform="translate(416.5,152.0) scale(0.105400,-0.068000)"/>
<path d="M126 700H275L389 0H279L259 139V137H134L114 0H12ZM246 232 197 578H195L147 232Z" transform="translate(469.3,152.0) scale(0.105400,-0.068000)"/>
<path d="M41 700H207Q292 700 331.0 660.5Q370 621 370 539V511Q370 457 352.5 423.0Q335 389 299 374V372Q381 344 381 226V166Q381 85 338.5 42.5Q296 0 214 0H41ZM194 415Q227 415 243.5 432.0Q260 449 260 489V528Q260 566 246.5 583.0Q233 600 204 600H151V415ZM214 100Q243 100 257.0 115.5Q271 131 271 169V230Q271 278 254.5 296.5Q238 315 200 315H151V100Z" transform="translate(521.6,152.0) scale(0.105400,-0.068000)"/>
<path d="M126 700H275L389 0H279L259 139V137H134L114 0H12ZM246 232 197 578H195L147 232Z" transform="translate(574.1,152.0) scale(0.105400,-0.068000)"/>
<path d="M41 700H209Q291 700 332.0 656.0Q373 612 373 527V173Q373 88 332.0 44.0Q291 0 209 0H41ZM207 100Q234 100 248.5 116.0Q263 132 263 168V532Q263 568 248.5 584.0Q234 600 207 600H151V100Z" transform="translate(626.4,152.0) scale(0.105400,-0.068000)"/>
<path d="M41 700H198L268 199H270L340 700H497V0H393V530H391L311 0H219L139 530H137V0H41Z" transform="translate(195.0,264.0) scale(0.105400,-0.068000)"/>
<path d="M126 700H275L389 0H279L259 139V137H134L114 0H12ZM246 232 197 578H195L147 232Z" transform="translate(261.7,264.0) scale(0.105400,-0.068000)"/>
<path d="M41 700H179L286 281H288V700H386V0H273L141 511H139V0H41Z" transform="translate(314.0,264.0) scale(0.105400,-0.068000)"/>
<path d="M126 700H275L389 0H279L259 139V137H134L114 0H12ZM246 232 197 578H195L147 232Z" transform="translate(369.0,264.0) scale(0.105400,-0.068000)"/>
<path d="M33 166V534Q33 619 75.0 664.5Q117 710 197 710Q277 710 319.0 664.5Q361 619 361 534V474H257V541Q257 610 200 610Q143 610 143 541V158Q143 90 200 90Q257 90 257 158V295H202V395H361V166Q361 81 319.0 35.5Q277 -10 197 -10Q117 -10 75.0 35.5Q33 81 33 166Z" transform="translate(421.2,264.0) scale(0.105400,-0.068000)"/>
<path d="M41 700H341V600H151V415H302V315H151V100H341V0H41Z" transform="translate(472.5,264.0) scale(0.105400,-0.068000)"/>
<path d="M41 700H198L268 199H270L340 700H497V0H393V530H391L311 0H219L139 530H137V0H41Z" transform="translate(520.7,264.0) scale(0.105400,-0.068000)"/>
<path d="M41 700H341V600H151V415H302V315H151V100H341V0H41Z" transform="translate(587.4,264.0) scale(0.105400,-0.068000)"/>
<path d="M41 700H179L286 281H288V700H386V0H273L141 511H139V0H41Z" transform="translate(635.7,264.0) scale(0.105400,-0.068000)"/>
<path d="M127 600H12V700H352V600H237V0H127Z" transform="translate(690.7,264.0) scale(0.105400,-0.068000)"/>
<path d="M126 700H275L389 0H279L259 139V137H134L114 0H12ZM246 232 197 578H195L147 232Z" transform="translate(195.0,376.0) scale(0.105400,-0.068000)"/>
<path d="M22 166V206H126V158Q126 90 183 90Q211 90 225.5 106.5Q240 123 240 160Q240 204 220.0 237.5Q200 271 146 318Q78 378 51.0 426.5Q24 475 24 536Q24 619 66.0 664.5Q108 710 188 710Q267 710 307.5 664.5Q348 619 348 534V505H244V541Q244 577 230.0 593.5Q216 610 189 610Q134 610 134 543Q134 505 154.5 472.0Q175 439 229 392Q298 332 324.0 283.0Q350 234 350 168Q350 82 307.5 36.0Q265 -10 184 -10Q104 -10 63.0 35.5Q22 81 22 166Z" transform="translate(247.3,376.0) scale(0.105400,-0.068000)"/>
<path d="M22 166V206H126V158Q126 90 183 90Q211 90 225.5 106.5Q240 123 240 160Q240 204 220.0 237.5Q200 271 146 318Q78 378 51.0 426.5Q24 475 24 536Q24 619 66.0 664.5Q108 710 188 710Q267 710 307.5 664.5Q348 619 348 534V505H244V541Q244 577 230.0 593.5Q216 610 189 610Q134 610 134 543Q134 505 154.5 472.0Q175 439 229 392Q298 332 324.0 283.0Q350 234 350 168Q350 82 307.5 36.0Q265 -10 184 -10Q104 -10 63.0 35.5Q22 81 22 166Z" transform="translate(296.5,376.0) scale(0.105400,-0.068000)"/>
<path d="M33 166V534Q33 618 76.0 664.0Q119 710 200 710Q281 710 324.0 664.0Q367 618 367 534V166Q367 82 324.0 36.0Q281 -10 200 -10Q119 -10 76.0 36.0Q33 82 33 166ZM257 159V541Q257 610 200 610Q143 610 143 541V159Q143 90 200 90Q257 90 257 159Z" transform="translate(345.7,376.0) scale(0.105400,-0.068000)"/>
<path d="M34 162V538Q34 620 75.5 665.0Q117 710 196 710Q275 710 316.5 665.0Q358 620 358 538V464H254V545Q254 610 199 610Q144 610 144 545V154Q144 90 199 90Q254 90 254 154V261H358V162Q358 80 316.5 35.0Q275 -10 196 -10Q117 -10 75.5 35.0Q34 80 34 162Z" transform="translate(397.8,376.0) scale(0.105400,-0.068000)"/>
<path d="M41 700H151V0H41Z" transform="translate(448.2,376.0) scale(0.105400,-0.068000)"/>
<path d="M126 700H275L389 0H279L259 139V137H134L114 0H12ZM246 232 197 578H195L147 232Z" transform="translate(478.4,376.0) scale(0.105400,-0.068000)"/>
<path d="M127 600H12V700H352V600H237V0H127Z" transform="translate(530.7,376.0) scale(0.105400,-0.068000)"/>
<path d="M41 700H151V0H41Z" transform="translate(579.1,376.0) scale(0.105400,-0.068000)"/>
<path d="M33 166V534Q33 618 76.0 664.0Q119 710 200 710Q281 710 324.0 664.0Q367 618 367 534V166Q367 82 324.0 36.0Q281 -10 200 -10Q119 -10 76.0 36.0Q33 82 33 166ZM257 159V541Q257 610 200 610Q143 610 143 541V159Q143 90 200 90Q257 90 257 159Z" transform="translate(609.3,376.0) scale(0.105400,-0.068000)"/>
<path d="M41 700H179L286 281H288V700H386V0H273L141 511H139V0H41Z" transform="translate(661.5,376.0) scale(0.105400,-0.068000)"/>
<polygon points="0,63 33,63 0,168"/>
<polygon points="39,63 69,63 69,168"/>
<polygon points="0,180 33,180 0,273"/>
<polygon points="39,180 105,180 72,282"/>
<polygon points="111,180 144,180 144,273"/>
<polygon points="75,291 105,291 75,405"/>
<polygon points="114,291 144,291 144,405"/>
<circle cx="873" cy="22" r="18" fill="none" stroke="#000000" stroke-width="3"/>
<path d="M41 700H204Q289 700 328.0 660.5Q367 621 367 539V496Q367 387 295 358V356Q335 344 351.5 307.0Q368 270 368 208V85Q368 55 370.0 36.5Q372 18 380 0H268Q262 17 260.0 32.0Q258 47 258 86V214Q258 262 242.5 281.0Q227 300 189 300H151V0H41ZM191 400Q224 400 240.5 417.0Q257 434 257 474V528Q257 566 243.5 583.0Q230 600 201 600H151V400Z" transform="translate(866.0,32.0) scale(0.018000,-0.018000)"/>
</g>
</svg>